<svg width="33" height="33" viewBox="0 0 33 33" fill="none" xmlns="http://www.w3.org/2000/svg">
<circle cx="16.5" cy="16.5" r="16" fill="#1D2A30" stroke="#8CA39F"/>
<path d="M20.1234 8.45581C20.4359 8.14336 20.8598 7.96783 21.3017 7.96783C21.7437 7.96783 22.1675 8.14336 22.4801 8.45581L24.5426 10.5183C24.6974 10.6731 24.8202 10.8568 24.904 11.0591C24.9878 11.2614 25.031 11.4781 25.031 11.6971C25.031 11.916 24.9878 12.1328 24.904 12.335C24.8202 12.5373 24.6974 12.721 24.5426 12.8758L14.6317 22.7866L9.31506 23.6833L10.2126 18.3666L20.1234 8.45581ZM19.9326 11.0033L21.9951 13.0658L23.3642 11.6966L21.3017 9.63498L19.9326 11.0033ZM20.8159 14.245L18.7542 12.1825L11.7676 19.1691L11.3484 21.65L13.8292 21.2316L20.8159 14.245Z" fill="#8CA39F"/>
</svg>
