<svg width="25" height="25" viewBox="0 0 25 25" fill="none" xmlns="http://www.w3.org/2000/svg">
<path d="M11.4583 17.7083H13.5417V11.4583H11.4583V17.7083ZM12.5 9.37498C12.7951 9.37498 13.0427 9.27498 13.2427 9.07498C13.4427 8.87498 13.5424 8.62776 13.5417 8.33331C13.541 8.03887 13.441 7.79165 13.2417 7.59165C13.0424 7.39165 12.7951 7.29165 12.5 7.29165C12.2049 7.29165 11.9577 7.39165 11.7583 7.59165C11.559 7.79165 11.459 8.03887 11.4583 8.33331C11.4576 8.62776 11.5576 8.87533 11.7583 9.07602C11.959 9.27672 12.2063 9.37637 12.5 9.37498ZM12.5 22.9166C11.059 22.9166 9.70487 22.643 8.43751 22.0958C7.17015 21.5486 6.06772 20.8066 5.13022 19.8698C4.19272 18.933 3.45071 17.8305 2.90418 16.5625C2.35765 15.2944 2.08404 13.9403 2.08334 12.5C2.08265 11.0597 2.35626 9.70554 2.90418 8.43748C3.45209 7.16942 4.19411 6.06699 5.13022 5.13019C6.06633 4.19338 7.16876 3.45137 8.43751 2.90415C9.70626 2.35692 11.0604 2.08331 12.5 2.08331C13.9396 2.08331 15.2938 2.35692 16.5625 2.90415C17.8313 3.45137 18.9337 4.19338 19.8698 5.13019C20.8059 6.06699 21.5483 7.16942 22.0969 8.43748C22.6455 9.70554 22.9188 11.0597 22.9167 12.5C22.9146 13.9403 22.641 15.2944 22.0958 16.5625C21.5507 17.8305 20.8087 18.933 19.8698 19.8698C18.9309 20.8066 17.8285 21.5489 16.5625 22.0969C15.2965 22.6448 13.9424 22.918 12.5 22.9166ZM12.5 20.8333C14.8264 20.8333 16.7969 20.026 18.4115 18.4114C20.0261 16.7969 20.8333 14.8264 20.8333 12.5C20.8333 10.1736 20.0261 8.2031 18.4115 6.58852C16.7969 4.97394 14.8264 4.16665 12.5 4.16665C10.1736 4.16665 8.20314 4.97394 6.58855 6.58852C4.97397 8.2031 4.16668 10.1736 4.16668 12.5C4.16668 14.8264 4.97397 16.7969 6.58855 18.4114C8.20314 20.026 10.1736 20.8333 12.5 20.8333Z" fill="#8CA39F"/>
</svg>
