<svg width="25" height="25" viewBox="0 0 25 25" fill="none" xmlns="http://www.w3.org/2000/svg">
<path fill-rule="evenodd" clip-rule="evenodd" d="M20.5362 12.4181C20.5362 12.6711 20.6283 12.9155 20.7953 13.1056L22.2015 14.6056C22.3484 14.7695 22.4397 14.9757 22.4621 15.1946C22.4846 15.4136 22.4371 15.634 22.3265 15.8243L20.2432 19.4285C20.1337 19.6186 19.967 19.7693 19.7669 19.859C19.5667 19.9488 19.3434 19.9731 19.1286 19.9285L17.1703 19.5327C16.9211 19.4812 16.6617 19.5227 16.441 19.6493C16.2203 19.776 16.0536 19.979 15.9723 20.2202L15.3369 22.1264C15.267 22.3333 15.1339 22.513 14.9563 22.6401C14.7788 22.7672 14.5657 22.8353 14.3473 22.8347H10.1807C9.95353 22.8466 9.72874 22.7838 9.54064 22.6559C9.35255 22.528 9.21149 22.342 9.13901 22.1264L8.50359 20.2202C8.42235 19.979 8.25565 19.776 8.03496 19.6493C7.81428 19.5227 7.55486 19.4812 7.30568 19.5327L5.34734 19.9285C5.13258 19.9731 4.9092 19.9488 4.70907 19.859C4.50893 19.7693 4.34224 19.6186 4.23276 19.4285L2.14943 15.8243C2.03605 15.6362 1.98508 15.417 2.00378 15.1981C2.02249 14.9792 2.10993 14.7718 2.25359 14.6056L3.57651 13.1056C3.74351 12.9155 3.83561 12.6711 3.83561 12.4181C3.83561 12.1651 3.74351 11.9207 3.57651 11.7306L2.25359 10.2306C2.10993 10.0644 2.02249 9.857 2.00378 9.63811C1.98508 9.41921 2.03605 9.20001 2.14943 9.01183L4.23276 5.40767C4.33766 5.23082 4.49255 5.08898 4.67791 5C4.86328 4.91102 5.07084 4.8789 5.27443 4.90767L7.28484 5.3035C7.53403 5.35499 7.79344 5.31349 8.01413 5.18683C8.23482 5.06018 8.40151 4.85713 8.48276 4.616L9.06609 2.70975C9.13857 2.49414 9.27963 2.30819 9.46772 2.18029C9.65582 2.05238 9.88061 1.98956 10.1078 2.00142H14.2744C14.4928 2.00085 14.7058 2.06894 14.8834 2.19604C15.061 2.32315 15.1941 2.50285 15.264 2.70975L15.8994 4.616C15.9807 4.85713 16.1474 5.06018 16.3681 5.18683C16.5887 5.31349 16.8482 5.35499 17.0973 5.3035L19.0557 4.90767C19.2704 4.86304 19.4938 4.88735 19.694 4.97713C19.8941 5.06691 20.0608 5.21758 20.1703 5.40767L22.2536 9.01183C22.3642 9.20213 22.4117 9.42257 22.3892 9.64153C22.3668 9.86048 22.2755 10.0667 22.1286 10.2306L20.7953 11.7306C20.6283 11.9207 20.5362 12.1651 20.5362 12.4181ZM12.3 16C14.233 16 15.8 14.433 15.8 12.5C15.8 10.567 14.233 9 12.3 9C10.367 9 8.8 10.567 8.8 12.5C8.8 14.433 10.367 16 12.3 16Z" fill="#8CA39F"/>
</svg>
