<svg width="33" height="33" viewBox="0 0 33 33" fill="none" xmlns="http://www.w3.org/2000/svg">
<circle cx="16.5" cy="16.5" r="16" fill="#1D2A30" stroke="#8CA39F"/>
<path d="M8.09378 21.5859L9.21097 20.4766C7.9877 19.3782 7.02658 18.0193 6.39847 16.5C7.98441 12.5391 12.3594 9.46875 16.5 9.46875C17.5656 9.48282 18.6215 9.67288 19.625 10.0312L20.836 8.8125C19.463 8.23228 17.9904 7.92449 16.5 7.90625C13.9536 8.00201 11.491 8.84184 9.4166 10.3219C7.34223 11.802 5.74703 13.8575 4.82816 16.2344C4.7661 16.406 4.7661 16.594 4.82816 16.7656C5.5221 18.607 6.64099 20.2586 8.09378 21.5859Z" fill="#8CA39F"/>
<path d="M13.375 16.2891C13.4293 15.5404 13.7513 14.8363 14.2821 14.3055C14.8129 13.7748 15.517 13.4528 16.2656 13.3984L17.6797 11.9766C16.8873 11.7679 16.0541 11.7706 15.2631 11.9844C14.4721 12.1982 13.7509 12.6156 13.1716 13.195C12.5922 13.7744 12.1748 14.4955 11.961 15.2865C11.7472 16.0775 11.7445 16.9108 11.9531 17.7031L13.375 16.2891ZM28.1719 16.2344C27.276 13.9009 25.7173 11.8805 23.6875 10.4219L27.4375 6.66406L26.3359 5.5625L5.5625 26.3359L6.66406 27.4375L10.6484 23.4531C12.4249 24.4953 14.4407 25.0605 16.5 25.0938C19.0465 24.998 21.5091 24.1582 23.5834 22.6781C25.6578 21.198 27.253 19.1425 28.1719 16.7656C28.2339 16.594 28.2339 16.406 28.1719 16.2344ZM19.625 16.5C19.6217 17.047 19.4749 17.5835 19.1993 18.0559C18.9237 18.5284 18.5289 18.9202 18.0544 19.1922C17.5799 19.4643 17.0423 19.607 16.4953 19.6062C15.9483 19.6054 15.4112 19.461 14.9375 19.1875L19.1875 14.9375C19.4684 15.4107 19.6193 15.9497 19.625 16.5ZM16.5 23.5312C14.861 23.5026 13.253 23.0792 11.8125 22.2969L13.7969 20.3125C14.6995 20.9388 15.7934 21.2281 16.8876 21.1301C17.9818 21.032 19.0068 20.5527 19.7836 19.7758C20.5605 18.999 21.0398 17.974 21.1379 16.8798C21.236 15.7856 20.9466 14.6917 20.3203 13.7891L22.5625 11.5469C24.3551 12.7773 25.757 14.4964 26.6016 16.5C25.0156 20.4609 20.6406 23.5312 16.5 23.5312Z" fill="#8CA39F"/>
</svg>
