<svg width="33" height="33" viewBox="0 0 33 33" fill="none" xmlns="http://www.w3.org/2000/svg">
<circle cx="16.5" cy="16.5" r="16" fill="#1D2A30" stroke="#8CA39F"/>
<path d="M28.1719 16.2344C27.253 13.8575 25.6578 11.802 23.5835 10.3219C21.5091 8.84184 19.0465 8.00201 16.5 7.90625C13.9536 8.00201 11.491 8.84184 9.4166 10.3219C7.34223 11.802 5.74703 13.8575 4.82816 16.2344C4.7661 16.406 4.7661 16.594 4.82816 16.7656C5.74703 19.1425 7.34223 21.198 9.4166 22.6781C11.491 24.1582 13.9536 24.998 16.5 25.0938C19.0465 24.998 21.5091 24.1582 23.5835 22.6781C25.6578 21.198 27.253 19.1425 28.1719 16.7656C28.234 16.594 28.234 16.406 28.1719 16.2344ZM16.5 23.5312C12.3594 23.5312 7.98441 20.4609 6.39847 16.5C7.98441 12.5391 12.3594 9.46875 16.5 9.46875C20.6407 9.46875 25.0157 12.5391 26.6016 16.5C25.0157 20.4609 20.6407 23.5312 16.5 23.5312Z" fill="#8CA39F"/>
<path d="M16.5 11.8125C15.5729 11.8125 14.6666 12.0874 13.8958 12.6025C13.1249 13.1176 12.5241 13.8496 12.1693 14.7062C11.8145 15.5627 11.7217 16.5052 11.9026 17.4145C12.0834 18.3238 12.5299 19.159 13.1854 19.8146C13.841 20.4701 14.6762 20.9166 15.5855 21.0974C16.4948 21.2783 17.4373 21.1855 18.2938 20.8307C19.1504 20.4759 19.8824 19.8751 20.3975 19.1042C20.9126 18.3334 21.1875 17.4271 21.1875 16.5C21.1875 15.2568 20.6936 14.0645 19.8146 13.1854C18.9355 12.3064 17.7432 11.8125 16.5 11.8125ZM16.5 19.625C15.8819 19.625 15.2777 19.4417 14.7638 19.0983C14.2499 18.755 13.8494 18.2669 13.6129 17.6959C13.3764 17.1249 13.3145 16.4965 13.435 15.8903C13.5556 15.2842 13.8533 14.7273 14.2903 14.2903C14.7273 13.8533 15.2842 13.5556 15.8903 13.435C16.4965 13.3145 17.1249 13.3764 17.6959 13.6129C18.2669 13.8494 18.755 14.2499 19.0983 14.7638C19.4417 15.2777 19.625 15.8819 19.625 16.5C19.625 17.3288 19.2958 18.1237 18.7097 18.7097C18.1237 19.2958 17.3288 19.625 16.5 19.625Z" fill="#8CA39F"/>
</svg>
