<svg width="60" height="60" viewBox="0 0 60 60" fill="none" xmlns="http://www.w3.org/2000/svg">
<path d="M19.0376 50C17.9209 50 16.9684 49.6067 16.1801 48.82C15.3934 48.0333 15.0001 47.0809 15.0001 45.9625V15H12.5001V12.5H22.5001V10.575H37.5001V12.5H47.5001V15H45.0001V45.9625C45.0001 47.1125 44.6151 48.0725 43.8451 48.8425C43.0751 49.6125 42.1143 49.9984 40.9626 50H19.0376ZM42.5001 15H17.5001V45.9625C17.5001 46.4109 17.6443 46.7792 17.9326 47.0675C18.2209 47.3559 18.5893 47.5 19.0376 47.5H40.9626C41.3459 47.5 41.6984 47.34 42.0201 47.02C42.3418 46.7 42.5018 46.3475 42.5001 45.9625V15ZM24.5201 42.5H27.0201V20H24.5201V42.5ZM32.9801 42.5H35.4801V20H32.9801V42.5Z" fill="#8CA39F"/>
</svg>
